<?xml version="1.0" ?><!DOCTYPE svg  PUBLIC '-//W3C//DTD SVG 1.1//EN'  'http://www.w3.org/Graphics/SVG/1.1/DTD/svg11.dtd'><svg height="50px" id="Layer_1" style="enable-background:new 0 0 512 512;" version="1.1" viewBox="0 0 512 512" width="50px" xml:space="preserve" xmlns="http://www.w3.org/2000/svg" xmlns:xlink="http://www.w3.org/1999/xlink"><g id="Layer_1_1_"><circle cx="256" cy="248.726" r="243" style="fill:#26A6D1;"/></g><g id="Layer_2"><g id="Favorite"/><g><g><defs><circle cx="256" cy="248.726" id="SVGID_1_" r="243"/></defs><clipPath id="SVGID_2_"><use style="overflow:visible;" xlink:href="#SVGID_1_"/></clipPath><g style="opacity:0.5;clip-path:url(#SVGID_2_);adobe-blending-mode:screen;"><path d="M264.031,311.555c4.362,1.388,8.614,3.232,12.335,5.981      c7.243,5.352,11.914,13.388,14.437,22.11c0.704,2.433,3.306,0.424,4.867-0.043c2.88-0.862,5.891-1.24,8.886-1.053      c4.616,0.289,9.201,1.439,13.321,3.642c7.756,4.148,12.959,11.757,15.052,20.434c0.428,1.773,0.256,4.019,2.487,4.072      c2.316,0.055,4.617,0.563,6.708,1.609c3.959,1.982,9.204,7.5,9.043,12.398c-0.275,8.345-2.512,16.534-11.155,19.377      c-4.742,1.56-10.738,0.551-15.616,0.553c-24.472,0.008-48.945,0.017-73.417,0.009c-10.921-0.004-21.842-0.008-32.764-0.033      c-6.118-0.014-11.783,0.673-17.473-1.991c-18.645-8.728-21.497-37.277-4.838-49.679c4.499-3.349,9.948-4.992,15.451-5.25      c3.424-0.16,4.391,0.022,5.303-3.578c0.833-3.29,1.984-6.5,3.516-9.512c2.539-4.992,6.137-9.338,10.545-12.663      c2.268-1.711,4.723-3.149,7.283-4.336c1.351-0.626,2.768-1.086,4.134-1.678C245.25,310.577,257.4,309.445,264.031,311.555z" style="fill:#C4F0FF;adobe-blending-mode:normal;"/></g></g><g><defs><circle cx="256" cy="248.726" id="SVGID_3_" r="243"/></defs><clipPath id="SVGID_4_"><use style="overflow:visible;" xlink:href="#SVGID_3_"/></clipPath><g style="opacity:0.5;clip-path:url(#SVGID_4_);adobe-blending-mode:screen;"><path d="M75.901,96.965c4.362,1.388,8.614,3.232,12.335,5.981      c7.243,5.351,11.914,13.388,14.437,22.11c0.704,2.433,3.306,0.424,4.867-0.043c2.88-0.862,5.891-1.24,8.886-1.053      c4.616,0.289,9.201,1.439,13.321,3.642c7.756,4.148,12.959,11.757,15.052,20.434c0.428,1.773,0.256,4.019,2.487,4.072      c2.316,0.055,4.617,0.563,6.708,1.609c3.959,1.982,9.204,7.5,9.043,12.398c-0.275,8.345-2.512,16.534-11.155,19.377      c-4.742,1.56-10.738,0.551-15.616,0.553c-24.472,0.008-48.945,0.017-73.417,0.009c-10.921-0.004-21.842-0.008-32.764-0.033      c-6.118-0.014-11.783,0.673-17.473-1.991c-18.645-8.728-21.497-37.277-4.838-49.679c4.499-3.349,9.948-4.992,15.451-5.25      c3.424-0.16,4.391,0.022,5.303-3.578c0.833-3.29,1.984-6.5,3.516-9.512c2.539-4.992,6.137-9.338,10.545-12.663      c2.268-1.711,4.723-3.149,7.283-4.336c1.351-0.626,2.768-1.086,4.134-1.678C57.119,95.987,69.27,94.855,75.901,96.965z" style="fill:#C4F0FF;adobe-blending-mode:normal;"/></g></g><g><defs><circle cx="256" cy="248.726" id="SVGID_5_" r="243"/></defs><clipPath id="SVGID_6_"><use style="overflow:visible;" xlink:href="#SVGID_5_"/></clipPath><polygon points="     316.212,132.282 -26.288,331.056 -11.685,359.406    " style="opacity:0.1;clip-path:url(#SVGID_6_);fill:#FFEC5F;adobe-blending-mode:screen;enable-background:new    ;"/></g><g><defs><circle cx="256" cy="248.726" id="SVGID_7_" r="243"/></defs><clipPath id="SVGID_8_"><use style="overflow:visible;" xlink:href="#SVGID_7_"/></clipPath><polygon points="     316.212,132.282 6.911,379.568 25.55,405.444    " style="opacity:0.1;clip-path:url(#SVGID_8_);fill:#FFEC5F;adobe-blending-mode:screen;enable-background:new    ;"/></g><g><defs><circle cx="256" cy="248.726" id="SVGID_9_" r="243"/></defs><clipPath id="SVGID_10_"><use style="overflow:visible;" xlink:href="#SVGID_9_"/></clipPath><polygon points="     316.212,132.282 44.791,420.636 66.886,443.631    " style="opacity:0.1;clip-path:url(#SVGID_10_);fill:#FFEC5F;adobe-blending-mode:screen;enable-background:new    ;"/></g><g><defs><circle cx="256" cy="248.726" id="SVGID_11_" r="243"/></defs><clipPath id="SVGID_12_"><use style="overflow:visible;" xlink:href="#SVGID_11_"/></clipPath><polygon points="     316.212,132.282 88.407,456.2 113.54,475.83    " style="opacity:0.1;clip-path:url(#SVGID_12_);fill:#FFEC5F;adobe-blending-mode:screen;enable-background:new    ;"/></g><g><defs><circle cx="256" cy="248.726" id="SVGID_13_" r="243"/></defs><clipPath id="SVGID_14_"><use style="overflow:visible;" xlink:href="#SVGID_13_"/></clipPath><polygon points="     316.212,132.282 150.619,491.999 178.881,506.771    " style="opacity:0.1;clip-path:url(#SVGID_14_);fill:#FFEC5F;adobe-blending-mode:screen;enable-background:new    ;"/></g><g><defs><circle cx="256" cy="248.726" id="SVGID_15_" r="243"/></defs><clipPath id="SVGID_16_"><use style="overflow:visible;" xlink:href="#SVGID_15_"/></clipPath><polygon points="     316.212,132.282 213.713,514.789 244.064,524.578    " style="opacity:0.1;clip-path:url(#SVGID_16_);fill:#FFEC5F;adobe-blending-mode:screen;enable-background:new    ;"/></g><g><defs><circle cx="256" cy="248.726" id="SVGID_17_" r="243"/></defs><clipPath id="SVGID_18_"><use style="overflow:visible;" xlink:href="#SVGID_17_"/></clipPath><polygon points="     316.212,132.282 283.326,526.916 314.933,531.155    " style="opacity:0.1;clip-path:url(#SVGID_18_);fill:#FFEC5F;adobe-blending-mode:screen;enable-background:new    ;"/></g><g><defs><circle cx="256" cy="248.726" id="SVGID_19_" r="243"/></defs><clipPath id="SVGID_20_"><use style="overflow:visible;" xlink:href="#SVGID_19_"/></clipPath><polygon points="     316.212,132.282 361.106,525.731 392.932,523.71    " style="opacity:0.1;clip-path:url(#SVGID_20_);fill:#FFEC5F;adobe-blending-mode:screen;enable-background:new    ;"/></g><g><defs><circle cx="256" cy="248.726" id="SVGID_21_" r="243"/></defs><clipPath id="SVGID_22_"><use style="overflow:visible;" xlink:href="#SVGID_21_"/></clipPath><polygon points="     316.212,132.282 450.838,504.698 481.335,495.374    " style="opacity:0.1;clip-path:url(#SVGID_22_);fill:#FFEC5F;adobe-blending-mode:screen;enable-background:new    ;"/></g><g><defs><circle cx="256" cy="248.726" id="SVGID_23_" r="243"/></defs><clipPath id="SVGID_24_"><use style="overflow:visible;" xlink:href="#SVGID_23_"/></clipPath><polygon points="     316.212,132.282 531.355,464.744 558.964,448.783    " style="opacity:0.1;clip-path:url(#SVGID_24_);fill:#FFEC5F;adobe-blending-mode:screen;enable-background:new    ;"/></g><g><defs><circle cx="256" cy="248.726" id="SVGID_25_" r="243"/></defs><clipPath id="SVGID_26_"><use style="overflow:visible;" xlink:href="#SVGID_25_"/></clipPath><polygon points="     316.212,132.282 603.355,404.984 626.449,382.991    " style="opacity:0.1;clip-path:url(#SVGID_26_);fill:#FFEC5F;adobe-blending-mode:screen;enable-background:new    ;"/></g><g><defs><circle cx="256" cy="248.726" id="SVGID_27_" r="243"/></defs><clipPath id="SVGID_28_"><use style="overflow:visible;" xlink:href="#SVGID_27_"/></clipPath><polygon points="     316.212,132.282 -62.643,247.548 -54.903,278.484    " style="opacity:0.1;clip-path:url(#SVGID_28_);fill:#FFEC5F;adobe-blending-mode:screen;enable-background:new    ;"/></g><g><defs><circle cx="256" cy="248.726" id="SVGID_29_" r="243"/></defs><clipPath id="SVGID_30_"><use style="overflow:visible;" xlink:href="#SVGID_29_"/></clipPath><polygon points="     316.212,132.282 -79.526,146.75 -79.961,178.637    " style="opacity:0.1;clip-path:url(#SVGID_30_);fill:#FFEC5F;adobe-blending-mode:screen;enable-background:new    ;"/></g><g><defs><circle cx="256" cy="248.726" id="SVGID_31_" r="243"/></defs><clipPath id="SVGID_32_"><use style="overflow:visible;" xlink:href="#SVGID_31_"/></clipPath><polygon points="     316.212,132.282 -70.277,46.007 -78.778,76.743    " style="opacity:0.1;clip-path:url(#SVGID_32_);fill:#FFEC5F;adobe-blending-mode:screen;enable-background:new    ;"/></g><g><defs><circle cx="256" cy="248.726" id="SVGID_33_" r="243"/></defs><clipPath id="SVGID_34_"><use style="overflow:visible;" xlink:href="#SVGID_33_"/></clipPath><polygon points="     316.212,132.282 -41.772,-37.025 -56.836,-8.917    " style="opacity:0.1;clip-path:url(#SVGID_34_);fill:#FFEC5F;adobe-blending-mode:screen;enable-background:new    ;"/></g><g><defs><circle cx="256" cy="248.726" id="SVGID_35_" r="243"/></defs><clipPath id="SVGID_36_"><use style="overflow:visible;" xlink:href="#SVGID_35_"/></clipPath><polygon points="     316.212,132.282 25.646,-136.77 2.832,-114.487    " style="opacity:0.1;clip-path:url(#SVGID_36_);fill:#FFEC5F;adobe-blending-mode:screen;enable-background:new    ;"/></g><g><defs><circle cx="256" cy="248.726" id="SVGID_37_" r="243"/></defs><clipPath id="SVGID_38_"><use style="overflow:visible;" xlink:href="#SVGID_37_"/></clipPath><polygon points="     316.212,132.282 151.703,-227.932 122.067,-216.156    " style="opacity:0.1;clip-path:url(#SVGID_38_);fill:#FFEC5F;adobe-blending-mode:screen;enable-background:new    ;"/></g><g><defs><circle cx="256" cy="248.726" id="SVGID_39_" r="243"/></defs><clipPath id="SVGID_40_"><use style="overflow:visible;" xlink:href="#SVGID_39_"/></clipPath><polygon points="289.08,193.959 316.212,251.053 343.344,193.959    " style="clip-path:url(#SVGID_40_);fill:#FFEC5F;"/></g><g><defs><circle cx="256" cy="248.726" id="SVGID_41_" r="243"/></defs><clipPath id="SVGID_42_"><use style="overflow:visible;" xlink:href="#SVGID_41_"/></clipPath><polygon points="379.306,156.586 400.492,216.143 340.935,194.957    " style="clip-path:url(#SVGID_42_);fill:#FFEC5F;"/></g><g><defs><circle cx="256" cy="248.726" id="SVGID_43_" r="243"/></defs><clipPath id="SVGID_44_"><use style="overflow:visible;" xlink:href="#SVGID_43_"/></clipPath><g style="clip-path:url(#SVGID_44_);"><circle cx="316.212" cy="132.282" r="75.162" style="fill:#FFEC5F;"/></g></g><g><defs><circle cx="256" cy="248.726" id="SVGID_45_" r="243"/></defs><clipPath id="SVGID_46_"><use style="overflow:visible;" xlink:href="#SVGID_45_"/></clipPath><g style="clip-path:url(#SVGID_46_);adobe-blending-mode:screen;"><circle cx="316.212" cy="132.282" r="75.162" style="fill:#FFEC6D;adobe-blending-mode:normal;"/></g></g><g><defs><circle cx="256" cy="248.726" id="SVGID_47_" r="243"/></defs><clipPath id="SVGID_48_"><use style="overflow:visible;" xlink:href="#SVGID_47_"/></clipPath><g style="clip-path:url(#SVGID_48_);"><circle cx="316.212" cy="132.282" r="63.294" style="fill:#FFEC5F;"/></g></g><g><defs><circle cx="256" cy="248.726" id="SVGID_49_" r="243"/></defs><clipPath id="SVGID_50_"><use style="overflow:visible;" xlink:href="#SVGID_49_"/></clipPath><g style="clip-path:url(#SVGID_50_);adobe-blending-mode:multiply;"><circle cx="316.212" cy="132.282" r="43.057" style="fill:#FFEC5F;adobe-blending-mode:normal;"/></g></g><g><defs><circle cx="256" cy="248.726" id="SVGID_51_" r="243"/></defs><clipPath id="SVGID_52_"><use style="overflow:visible;" xlink:href="#SVGID_51_"/></clipPath><g style="clip-path:url(#SVGID_52_);"><path d="M405.338,111.773c-7.132,2.231-14.083,5.193-20.167,9.611      c-11.843,8.6-19.479,21.514-23.604,35.53c-1.151,3.91-5.406,0.681-7.958-0.07c-4.709-1.384-9.631-1.993-14.528-1.692      c-7.548,0.464-15.043,2.312-21.779,5.853c-12.681,6.666-21.187,18.893-24.61,32.836c-0.699,2.848-0.419,6.458-4.066,6.543      c-3.786,0.088-7.549,0.904-10.967,2.586c-6.473,3.185-15.049,12.052-14.785,19.924c0.45,13.409,4.108,26.57,18.238,31.138      c7.754,2.506,17.556,0.886,25.533,0.888c40.012,0.014,80.024,0.028,120.036,0.014c17.856-0.006,35.712-0.013,53.568-0.053      c10.002-0.022,19.265,1.081,28.567-3.199c30.484-14.025,35.148-59.902,7.91-79.831c-7.356-5.382-16.266-8.022-25.262-8.436      c-5.599-0.257-7.18,0.036-8.671-5.75c-1.362-5.287-3.244-10.445-5.748-15.285c-4.151-8.022-10.033-15.006-17.24-20.349      c-3.708-2.749-7.721-5.06-11.908-6.967c-2.209-1.006-4.525-1.746-6.758-2.696C436.046,110.2,416.18,108.382,405.338,111.773z" style="fill:#C4F0FF;"/></g></g></g><path d="M170.447,384.042v-202.61c0-7.462-7.872-13.51-17.583-13.51H114.16   c-9.711,0-17.583,6.049-17.583,13.51v202.61c-19.171,12.321-31.898,33.932-31.898,58.553c0,38.331,30.818,69.404,68.834,69.404   s68.834-31.073,68.834-69.404C202.345,417.974,189.618,396.363,170.447,384.042z" style="fill:#B3B3B3;"/><path d="M173.273,382.268V181.323c0-7.4-7.872-13.399-17.583-13.399h-38.704   c-9.711,0-17.583,5.999-17.583,13.399v200.945c-19.171,12.219-31.898,33.653-31.898,58.072c0,38.016,30.818,68.834,68.834,68.834   s68.834-30.818,68.834-68.834C205.172,415.92,192.445,394.487,173.273,382.268z" style="fill:#FFFFFF;"/><path d="M167.451,391.402l-5.009-3.192V277.811h-52.208v110.398l-5.009,3.192   c-16.838,10.732-26.889,29.026-26.889,48.939c0,31.982,26.02,58.002,58.003,58.002c31.982,0,58.002-26.02,58.002-58.002   C194.341,420.428,184.289,402.133,167.451,391.402z" style="fill:#D51920;"/><line style="fill:none;stroke:#4D4D4D;stroke-width:6.2508;stroke-linecap:round;stroke-miterlimit:10;" x1="133.154" x2="165.994" y1="195.944" y2="195.944"/><line style="fill:none;stroke:#4D4D4D;stroke-width:6.2508;stroke-linecap:round;stroke-miterlimit:10;" x1="133.154" x2="165.994" y1="224.208" y2="224.208"/><line style="fill:none;stroke:#4D4D4D;stroke-width:6.2508;stroke-linecap:round;stroke-miterlimit:10;" x1="133.154" x2="165.994" y1="252.471" y2="252.471"/><line style="fill:none;stroke:#4D4D4D;stroke-width:6.2508;stroke-linecap:round;stroke-miterlimit:10;" x1="133.154" x2="165.994" y1="280.734" y2="280.734"/><line style="fill:none;stroke:#4D4D4D;stroke-width:6.2508;stroke-linecap:round;stroke-miterlimit:10;" x1="133.154" x2="165.994" y1="308.998" y2="308.998"/><line style="fill:none;stroke:#4D4D4D;stroke-width:6.2508;stroke-linecap:round;stroke-miterlimit:10;" x1="133.154" x2="165.994" y1="337.261" y2="337.261"/><line style="fill:none;stroke:#4D4D4D;stroke-width:6.2508;stroke-linecap:round;stroke-miterlimit:10;" x1="133.154" x2="165.994" y1="365.525" y2="365.525"/><path d="M149.051,508   c-4.118,0.778-8.365,1.176-12.711,1.176c-38.014,0-68.839-30.816-68.839-68.839c0-24.415,12.731-45.85,31.902-58.072V181.32   c0-7.397,7.876-13.399,17.586-13.399h25.432c-9.71,0-17.586,6.002-17.586,13.399v200.944   c-19.171,12.223-31.892,33.657-31.892,58.072C92.943,474.014,117.119,502.038,149.051,508z" style="opacity:0.2;adobe-blending-mode:multiply;enable-background:new    ;"/><path d="M193.864,440.337   c0,38.023-30.816,68.839-68.829,68.839c-2.383,0-4.745-0.12-7.068-0.359c34.704-3.539,61.771-32.839,61.771-68.48   c0-24.415-12.731-45.85-31.902-58.072V181.32c0-7.397-7.876-13.399-17.586-13.399h14.137c9.71,0,17.586,6.002,17.586,13.399   v200.944C181.143,394.487,193.864,415.922,193.864,440.337z" style="opacity:0.4;fill:#FFFFFF;adobe-blending-mode:colorDodge;enable-background:new    ;"/></g></svg>